<svg width="104" height="104" viewBox="0 0 104 104" fill="none" xmlns="http://www.w3.org/2000/svg">
<path d="M90.9489 41.0165C90.9861 41.1886 91.0182 41.3674 90.9815 41.5396C90.9006 41.9187 90.5698 41.7717 90.2758 41.6489C88.1268 40.7509 85.9705 39.8719 83.8437 38.9269C83.172 38.6335 82.9098 38.7626 82.577 39.4097C74.3479 55.4538 63.0551 68.8537 47.9402 78.8934C38.1621 85.4154 27.0799 89.7459 15.4584 91.586C14.4921 91.7416 13.5215 91.8795 12.5494 91.9984V91.9984C12.2717 92.0288 12.1629 91.4838 12.4212 91.3777V91.3777C31.4217 83.6432 45.5203 70.3944 55.8423 52.9329C59.7161 46.3797 62.6501 39.4009 64.9213 32.1448C65.235 31.1455 65.2306 31.1397 64.2497 30.7273C62.5544 30.0171 60.8546 29.3157 59.1652 28.5938C59.1626 28.5927 59.16 28.5916 59.1574 28.5904C58.8171 28.4399 58.7717 27.861 59.0916 27.6708V27.6708C67.1778 22.855 75.267 18.045 83.3591 13.2408C84.0278 12.8447 84.1618 12.9033 84.3474 13.6722C86.5499 22.7875 88.7504 31.9022 90.9489 41.0165V41.0165Z" stroke="#C7DF9E" stroke-width="4"/>
</svg>
