<svg width="104" height="104" viewBox="0 0 104 104" fill="none" xmlns="http://www.w3.org/2000/svg">
<path d="M83.2703 41.7609C75.3524 38.405 64.7183 36.2327 53.361 35.6395C51.6119 35.5346 49.86 35.4831 48.1078 35.4851C56.5042 25.271 65.5123 18.4128 71.4452 18.1907C72.609 18.1474 73.5987 18.3884 74.3926 18.8949C76.9567 20.5607 77.6636 25.2872 76.3612 31.861C76.2198 32.763 76.799 33.6514 77.6636 33.822C77.8784 33.8663 78.0999 33.8678 78.3154 33.8265C78.5308 33.7851 78.7358 33.7018 78.9188 33.5812C79.1018 33.4606 79.259 33.3052 79.3814 33.1239C79.5038 32.9425 79.5891 32.7389 79.6322 32.5246C81.2609 24.2878 80.0564 18.6268 76.2198 16.1322C74.8467 15.2302 73.1745 14.8023 71.3174 14.8754C63.8972 15.1571 53.4181 23.1854 43.8009 35.5447C39.8796 35.6456 35.9684 35.9893 32.09 36.574C29.7517 26.1052 30.6734 18.5997 34.2435 16.7931C34.7356 16.5249 35.2767 16.4003 35.8994 16.3407C38.4335 16.1457 41.9166 17.7682 45.7287 20.9264C46.4356 21.5033 47.4824 21.4329 48.0643 20.7124C48.2052 20.5465 48.3117 20.3544 48.3775 20.1473C48.4433 19.9401 48.4672 19.7219 48.4477 19.5055C48.4282 19.2891 48.3658 19.0786 48.264 18.8864C48.1623 18.6942 48.0232 18.524 47.8549 18.3857C43.2788 14.6181 39.0752 12.7708 35.6302 13.0227C34.6174 13.1017 33.6285 13.37 32.7154 13.8136C28.3949 16.013 26.6683 22.2211 27.745 31.2922C27.9979 33.1665 28.3242 35.1276 28.8082 37.1319C16.9097 39.502 9.3372 44.2583 9.01092 50.2226C8.78252 54.4561 12.1405 58.4757 18.7233 61.8614C18.9174 61.9623 19.1297 62.0238 19.3479 62.0423C19.566 62.0608 19.7857 62.0359 19.9942 61.9692C20.2026 61.9024 20.3957 61.795 20.5621 61.6533C20.7285 61.5116 20.8651 61.3384 20.9638 61.1437C21.0652 60.95 21.1269 60.7382 21.1453 60.5206C21.1637 60.3029 21.1383 60.0838 21.0708 59.876C21.0032 59.6682 20.8947 59.4759 20.7517 59.3104C20.6087 59.1448 20.434 59.0093 20.2378 58.9118C14.9846 56.2167 12.1541 53.1831 12.3227 50.4068C12.5076 46.4983 18.7505 42.4895 29.5858 40.3633C30.6302 44.1545 31.9014 47.88 33.3924 51.52C29.6973 58.3348 27.019 65.0522 25.6486 71.0192C23.6067 79.9224 24.6997 86.2713 28.7619 88.8932C30.0643 89.7383 31.5788 90.1636 33.2782 90.1636C36.6634 90.1636 40.7692 88.4978 45.416 85.1987C45.5936 85.0724 45.7445 84.9125 45.8602 84.7282C45.9758 84.5438 46.0538 84.3385 46.0898 84.1241C46.1257 83.9097 46.119 83.6903 46.0698 83.4785C46.0207 83.2667 45.9302 83.0666 45.8034 82.8896C45.6767 82.7127 45.5162 82.5623 45.3311 82.4472C45.146 82.332 44.9399 82.2543 44.7247 82.2184C44.5094 82.1826 44.2892 82.1893 44.0766 82.2383C43.864 82.2872 43.6631 82.3774 43.4855 82.5037C37.8924 86.4934 33.1776 87.8206 30.5728 86.1251C27.8239 84.3347 27.2148 79.1152 28.9169 71.7668C30.0616 66.7586 32.2015 61.1843 35.1054 55.4421C35.826 57.0239 36.5927 58.603 37.3867 60.1848C42.5556 70.2852 48.8854 79.0583 55.1881 84.917C60.2156 89.5731 64.8896 92 68.7262 92C70.0014 92 71.1923 91.7291 72.2691 91.1955C76.4156 89.0801 78.2183 83.2106 77.3373 74.6758C76.5325 66.6773 73.5008 56.9399 68.7996 47.2215C68.6076 46.8292 68.2685 46.5279 67.8554 46.3825C67.4424 46.2371 66.9886 46.2592 66.5917 46.4441C66.3932 46.5376 66.2151 46.6692 66.0677 46.8314C65.9203 46.9935 65.8064 47.1831 65.7327 47.3892C65.6589 47.5952 65.6267 47.8138 65.6379 48.0323C65.6491 48.2507 65.7034 48.4649 65.7978 48.6624C75.5401 68.8902 76.2361 85.4533 70.7682 88.2323C64.9902 91.1793 51.096 79.7246 40.3477 58.6897C39.1656 56.4104 38.0745 54.0855 37.0767 51.7204C38.3084 49.5346 39.6108 47.319 41.0574 45.1196C42.4646 42.9703 43.9418 40.8673 45.4867 38.814H46.9196C48.8746 38.814 50.9981 38.8573 53.206 38.9846C76.8697 40.2279 92.9881 48.2372 92.6618 54.643C92.5204 57.4058 89.3038 60.2011 83.8657 62.3029C83.4714 62.4737 83.1587 62.7899 82.9932 63.1852C82.8278 63.5806 82.8223 64.0243 82.9781 64.4236C83.1338 64.8228 83.4386 65.1465 83.8287 65.3268C84.2187 65.5071 84.6636 65.53 85.0703 65.3907C91.9793 62.7255 95.7751 59.0553 95.9899 54.8137C96.2427 50.014 91.7563 45.3877 83.3002 41.8043V41.7745L83.2703 41.7609ZM38.2513 43.2859C37.293 44.7624 36.3718 46.2625 35.4888 47.7849C34.4842 45.1633 33.6103 42.4939 32.8704 39.7864C35.6437 39.3625 38.4356 39.0705 41.2368 38.9115C40.2035 40.3404 39.2124 41.7991 38.2649 43.2859V43.2452L38.2513 43.2859ZM52.4827 47.533C45.8401 47.533 45.8401 57.4654 52.4827 57.4654C59.1389 57.4654 59.1389 47.533 52.4827 47.533Z" fill="#C7DF9E"/>
</svg>
