<svg width="117" height="104" viewBox="0 0 117 104" fill="none" xmlns="http://www.w3.org/2000/svg">
<path d="M56.4029 51.0995C57.5573 52.3135 59.4374 52.3135 60.6084 51.0995L78.5683 32.3643C83.7798 26.9177 83.483 17.8946 77.6448 12.8745C72.5652 8.49422 64.9953 9.28169 60.3445 14.1377L58.4974 16.0572L56.6667 14.1541C52.016 9.28169 44.4461 8.49422 39.3665 12.8745C33.5448 17.8946 33.2314 26.9177 38.4429 32.3643L56.4029 51.0995ZM104.23 63.8302C102.284 62.0748 99.2495 62.1896 97.2044 63.8302L81.9657 75.9539C80.1021 77.4468 77.7767 78.2507 75.3688 78.2507H55.8586C54.4073 78.2507 53.2199 77.0695 53.2199 75.6258C53.2199 74.1821 54.4073 73.0009 55.8586 73.0009H68.772C71.3942 73.0009 73.8351 71.2127 74.2639 68.637C74.8081 65.3559 72.2683 62.5013 69.0523 62.5013H42.6649C38.212 62.5013 33.9076 64.027 30.4442 66.816L22.7754 73.0009H13.6387C12.1874 73.0009 11 74.1821 11 75.6258V91.3751C11 92.8188 12.1874 94 13.6387 94H72.4827C74.8741 94 77.1995 93.1961 79.0796 91.7032L104.016 71.8525C106.523 69.8674 106.72 66.0613 104.23 63.8302Z" stroke="#C7DF9E" stroke-width="4"/>
</svg>
