<svg width="104" height="104" viewBox="0 0 104 104" fill="none" xmlns="http://www.w3.org/2000/svg">
<path d="M72 86L92 52L72 18H32L12 52L32 86H72Z" stroke="#C7DF9E" stroke-width="4" stroke-linejoin="round"/>
<path d="M52 62C54.6522 62 57.1957 60.9464 59.0711 59.0711C60.9464 57.1957 62 54.6522 62 52C62 49.3478 60.9464 46.8043 59.0711 44.9289C57.1957 43.0536 54.6522 42 52 42C49.3478 42 46.8043 43.0536 44.9289 44.9289C43.0536 46.8043 42 49.3478 42 52C42 54.6522 43.0536 57.1957 44.9289 59.0711C46.8043 60.9464 49.3478 62 52 62Z" stroke="#C7DF9E" stroke-width="4" stroke-linejoin="round"/>
</svg>
