<svg width="104" height="104" viewBox="0 0 104 104" fill="none" xmlns="http://www.w3.org/2000/svg">
<path fill-rule="evenodd" clip-rule="evenodd" d="M51.5 14.625C37.9665 14.625 28.5909 24.3425 28.5909 36.1875C28.5909 41.8455 31.0193 45.5312 34.2265 49.4355L35.4522 50.8903C36.7294 52.4083 38.144 54.0872 39.3066 55.7662C40.9332 58.1295 42.3822 60.9183 42.8633 64.3338C42.9779 65.4433 42.6599 66.5543 41.976 67.4334C41.292 68.3125 40.2954 68.8913 39.1954 69.0483C38.0954 69.2054 36.9776 68.9284 36.0767 68.2755C35.1758 67.6226 34.5619 66.6446 34.364 65.547C34.1349 63.9255 33.4305 62.4017 32.2449 60.6768C31.2758 59.3223 30.2398 58.0173 29.1407 56.7668C28.6596 56.1918 28.1499 55.588 27.6058 54.9268C24.0148 50.5625 20 44.9045 20 36.1875C20 19.2825 33.5335 6 51.5 6C69.4665 6 83 19.2825 83 36.1875C83 44.9045 78.9852 50.5625 75.3942 54.9268C74.8501 55.588 74.3404 56.1917 73.8593 56.761C72.6737 58.1698 71.6657 59.3657 70.7608 60.6768C69.5695 62.4017 68.8708 63.9255 68.6417 65.547C68.562 66.1077 68.3731 66.6471 68.0857 67.1344C67.7983 67.6218 67.4182 68.0475 66.9669 68.3874C66.5157 68.7272 66.0022 68.9745 65.4557 69.1151C64.9093 69.2557 64.3406 69.2869 63.7821 69.2069C63.2237 69.1268 62.6864 68.9371 62.201 68.6486C61.7156 68.3601 61.2915 67.9785 60.953 67.5254C60.6145 67.0724 60.3682 66.5568 60.2281 66.0082C60.0881 65.4596 60.057 64.8887 60.1367 64.328C60.6178 60.9183 62.0668 58.1295 63.6934 55.7662C64.856 54.0872 66.2706 52.4083 67.5478 50.8903C67.9774 50.3843 68.3897 49.8955 68.7677 49.4355C71.9807 45.5312 74.4091 41.8455 74.4091 36.1875C74.4091 24.3425 65.0335 14.625 51.5 14.625ZM40.0455 93.6875C40.0455 92.5438 40.498 91.4469 41.3036 90.6381C42.1091 89.8294 43.2017 89.375 44.3409 89.375H58.6591C59.7983 89.375 60.8909 89.8294 61.6964 90.6381C62.502 91.4469 62.9545 92.5438 62.9545 93.6875C62.9545 94.8312 62.502 95.9281 61.6964 96.7369C60.8909 97.5456 59.7983 98 58.6591 98H44.3409C43.2017 98 42.1091 97.5456 41.3036 96.7369C40.498 95.9281 40.0455 94.8312 40.0455 93.6875ZM38.6136 75C37.4744 75 36.3818 75.4544 35.5763 76.2631C34.7707 77.0719 34.3182 78.1688 34.3182 79.3125C34.3182 80.4562 34.7707 81.5531 35.5763 82.3619C36.3818 83.1706 37.4744 83.625 38.6136 83.625H64.3864C65.5256 83.625 66.6182 83.1706 67.4237 82.3619C68.2293 81.5531 68.6818 80.4562 68.6818 79.3125C68.6818 78.1688 68.2293 77.0719 67.4237 76.2631C66.6182 75.4544 65.5256 75 64.3864 75H38.6136Z" fill="#C7DF9E" stroke="white" stroke-width="4"/>
</svg>
