<svg width="64" height="64" viewBox="0 0 64 64" fill="none" xmlns="http://www.w3.org/2000/svg">
<g clip-path="url(#clip0_31_87)">
<path d="M32 0C40.4869 0 48.6263 3.37142 54.6274 9.37258C60.6286 15.3737 64 23.5131 64 32C64 40.4869 60.6286 48.6263 54.6274 54.6274C48.6263 60.6286 40.4869 64 32 64C23.5131 64 15.3737 60.6286 9.37258 54.6274C3.37142 48.6263 0 40.4869 0 32C0 23.5131 3.37142 15.3737 9.37258 9.37258C15.3737 3.37142 23.5131 0 32 0Z" fill="white"/>
<path d="M37.6688 31.7054C37.6695 32.0948 37.5339 32.4722 37.2854 32.7721L28.9521 42.7721C28.6692 43.1124 28.2627 43.3265 27.822 43.3671C27.3812 43.4078 26.9424 43.2717 26.6021 42.9888C26.2617 42.7059 26.0477 42.2993 26.0071 41.8586C25.9664 41.4179 26.1025 40.9791 26.3854 40.6388L33.8521 31.7054L26.6521 22.7721C26.5136 22.6016 26.4103 22.4054 26.3479 22.1949C26.2855 21.9843 26.2653 21.7635 26.2886 21.5451C26.3118 21.3267 26.378 21.1151 26.4832 20.9224C26.5885 20.7296 26.7309 20.5596 26.9021 20.4221C27.0735 20.2695 27.2745 20.1539 27.4926 20.0825C27.7107 20.0112 27.9412 19.9857 28.1697 20.0076C28.3981 20.0295 28.6196 20.0984 28.8202 20.2098C29.0208 20.3213 29.1962 20.473 29.3354 20.6554L37.3854 30.6554C37.5946 30.9639 37.6944 31.3336 37.6688 31.7054Z" fill="#363431" stroke="white"/>
</g>
<defs>
<clipPath id="clip0_31_87">
<rect width="64" height="64" fill="white"/>
</clipPath>
</defs>
</svg>
