<svg width="64" height="64" viewBox="0 0 64 64" fill="none" xmlns="http://www.w3.org/2000/svg">
<g clip-path="url(#clip0_31_88)">
<path d="M32 0C40.4869 0 48.6263 3.37142 54.6274 9.37258C60.6286 15.3737 64 23.5131 64 32C64 40.4869 60.6286 48.6263 54.6274 54.6274C48.6263 60.6286 40.4869 64 32 64C23.5131 64 15.3737 60.6286 9.37258 54.6274C3.37142 48.6263 0 40.4869 0 32C0 23.5131 3.37142 15.3737 9.37258 9.37258C15.3737 3.37142 23.5131 0 32 0Z" fill="white"/>
<path d="M26.0039 31.7054C26.0032 32.0948 26.1388 32.4722 26.3873 32.7721L34.7206 42.7721C35.0035 43.1124 35.41 43.3265 35.8507 43.3671C36.2914 43.4078 36.7302 43.2717 37.0706 42.9888C37.411 42.7059 37.625 42.2993 37.6656 41.8586C37.7063 41.4179 37.5702 40.9791 37.2873 40.6388L29.8206 31.7054L37.0206 22.7721C37.1591 22.6016 37.2624 22.4054 37.3248 22.1949C37.3872 21.9843 37.4074 21.7635 37.3841 21.5451C37.3609 21.3267 37.2947 21.1151 37.1895 20.9224C37.0842 20.7296 36.9418 20.5596 36.7706 20.4221C36.5992 20.2695 36.3982 20.1539 36.1801 20.0825C35.962 20.0112 35.7315 19.9857 35.503 20.0076C35.2746 20.0295 35.0531 20.0984 34.8525 20.2098C34.6519 20.3213 34.4765 20.473 34.3373 20.6554L26.2873 30.6554C26.0781 30.9639 25.9783 31.3336 26.0039 31.7054Z" fill="#363431" stroke="white"/>
</g>
<defs>
<clipPath id="clip0_31_88">
<rect width="64" height="64" fill="white"/>
</clipPath>
</defs>
</svg>
